# xmcd
#
# Track frame offsets:
#	150
#	18737
#	44785
#	64916
#	72867
#	99506
#	118372
#	132973
#	146891
#	159890
#	182521
#	228175
#	244971
#
# Disc length: 3745 seconds
#
# Revision: 0
# Processed by: cddbd v1.5.2PL0 Copyright (c) Steve Scherf et al.
# Submitted via: EasyCDDAExtractor 16.0.6.1
#
DISCID=c00e9f0d
DTITLE=Συλλογικός δίσκος - Χριστουγεννιάτικο κονσέρτο-διεύθ. Σ. Ξαρχάκος
DYEAR=2003
DGENRE=Ποικίλη
TTITLE0=Ψάλτης μετά ισοκρατών - Σήμερον γεννάται εκ Παρθένου
TTITLE1=Χορωδία - Άγια Νύχτα
TTITLE2=Άγνωστος - Χαίρε Μαρία
TTITLE3=Χορωδία - Γιορτινό τραγούδι
TTITLE4=Άγνωστος - Το νανούρισμα του μικρού Χριστού
TTITLE5=Χορωδία - Ο Ιησούς είναι η χαρά μου
TTITLE6=Άγνωστος - Το ταχυδρομικό έλκυθρο
TTITLE7=Χορωδία - Η Μαρία περπατούσε σε ένα δάσος από αγκάθια
TTITLE8=Χορός ψαλτών - Δεύτε ίδωμεν πιστοί, πού εγεννήθη ο Χριστός
TTITLE9=Άνευ ερμηνευτού - Greensleeves
TTITLE10=Χορωδία - Απόσπασμα από τον Μεσσία του G. F. Handel 1
TTITLE11=Άγνωστος - Απόσπασμα από τον Μεσσία του G. F. Handel 2
TTITLE12=Χορωδία - Απόσπασμα από τον Μεσσία του G. F. Handel 3
EXTD=
EXTT0=
EXTT1=
EXTT2=
EXTT3=
EXTT4=
EXTT5=
EXTT6=
EXTT7=
EXTT8=
EXTT9=
EXTT10=
EXTT11=
EXTT12=
PLAYORDER=
